<svg height="512pt" viewBox="0 0 512 512" width="512pt" xmlns="http://www.w3.org/2000/svg"><path d="m42.667969 8.535156h426.664062c18.851563 0 34.132813 15.28125 34.132813 34.132813v426.664062c0 18.851563-15.28125 34.132813-34.132813 34.132813h-426.664062c-18.851563 0-34.132813-15.28125-34.132813-34.132813v-426.664062c0-18.851563 15.28125-34.132813 34.132813-34.132813zm0 0" fill="#cfd8dc"/><path d="m42.667969 8.535156h401.066406c18.851563 0 34.132813 15.28125 34.132813 34.132813v426.664062c0 18.851563-15.28125 34.132813-34.132813 34.132813h-401.066406c-18.851563 0-34.132813-15.28125-34.132813-34.132813v-426.664062c0-18.851563 15.28125-34.132813 34.132813-34.132813zm0 0" fill="#f5f5f5"/><path d="m503.464844 42.667969v34.132812h-494.929688v-34.132812c0-18.851563 15.28125-34.132813 34.132813-34.132813h426.664062c18.851563 0 34.132813 15.28125 34.132813 34.132813zm0 0" fill="#0377bc"/><path d="m477.867188 42.667969v34.132812h-469.332032v-34.132812c-.480468-18.359375 14.007813-33.636719 32.363282-34.132813h404.601562c18.359375.496094 32.84375 15.773438 32.367188 34.132813zm0 0" fill="#02a9f4"/><path d="m132.265625 204.800781c-16.492187 0-29.867187-13.371093-29.867187-29.867187 0-4.714844 3.820312-8.535156 8.535156-8.535156 4.710937 0 8.53125 3.820312 8.53125 8.535156 0 7.070312 5.734375 12.800781 12.800781 12.800781 7.070313 0 12.800781-5.730469 12.800781-12.800781v-64c0-4.714844 3.820313-8.535156 8.535156-8.535156 4.710938 0 8.53125 3.820312 8.53125 8.535156v64c0 16.496094-13.371093 29.867187-29.867187 29.867187zm0 0" fill="#894b9d"/><path d="m179.199219 119.464844h-51.199219c-4.710938 0-8.535156-3.820313-8.535156-8.53125 0-4.714844 3.824218-8.535156 8.535156-8.535156h51.199219c4.714843 0 8.535156 3.820312 8.535156 8.535156 0 4.710937-3.820313 8.53125-8.535156 8.53125zm0 0" fill="#894b9d"/><path d="m221.867188 204.800781c-18.851563 0-34.132813-15.28125-34.132813-34.132812v-34.132813c0-18.851562 15.28125-34.136718 34.132813-34.136718 18.851562 0 34.132812 15.285156 34.132812 34.136718v34.132813c0 18.851562-15.28125 34.132812-34.132812 34.132812zm0-85.335937c-9.425782 0-17.066407 7.644531-17.066407 17.070312v34.132813c0 9.425781 7.640625 17.066406 17.066407 17.066406 9.425781 0 17.066406-7.640625 17.066406-17.066406v-34.132813c0-9.425781-7.640625-17.070312-17.066406-17.070312zm0 0" fill="#894b9d"/><path d="m302.933594 204.800781h-21.332032c-9.425781 0-17.066406-7.640625-17.066406-17.066406v-34.132813c0-4.714843 3.820313-8.535156 8.53125-8.535156h29.867188c16.496094 0 29.867187 13.371094 29.867187 29.867188s-13.371093 29.867187-29.867187 29.867187zm-21.332032-42.667969v25.601563h21.332032c7.070312 0 12.800781-5.730469 12.800781-12.800781 0-7.070313-5.730469-12.800782-12.800781-12.800782zm0 0" fill="#894b9d"/><path d="m302.933594 162.132812h-29.867188c-4.710937 0-8.53125-3.820312-8.53125-8.53125v-34.136718c0-9.425782 7.640625-17.066406 17.066406-17.066406h21.332032c16.496094 0 29.867187 13.375 29.867187 29.867187 0 16.496094-13.371093 29.867187-29.867187 29.867187zm-21.332032-17.066406h21.332032c7.070312 0 12.800781-5.730468 12.800781-12.800781 0-7.066406-5.730469-12.800781-12.800781-12.800781h-21.332032zm0 0" fill="#894b9d"/><path d="m379.734375 204.800781h-12.800781c-13.84375-.6875-24.914063-11.757812-25.601563-25.601562 0-4.710938 3.820313-8.53125 8.535157-8.53125 4.710937 0 8.53125 3.820312 8.53125 8.53125.609374 4.4375 4.097656 7.925781 8.535156 8.535156h12.800781c7.066406 0 12.800781-5.730469 12.800781-12.800781 0-7.070313-5.734375-12.800782-12.800781-12.800782h-8.535156c-16.492188 0-29.867188-13.371093-29.867188-29.867187 0-16.492187 13.375-29.867187 29.867188-29.867187h12.800781c13.84375.6875 24.914062 11.757812 25.601562 25.601562 0 4.710938-3.820312 8.535156-8.535156 8.535156-4.710937 0-8.53125-3.824218-8.53125-8.535156-.609375-4.4375-4.097656-7.925781-8.535156-8.535156h-12.800781c-7.070313 0-12.800781 5.734375-12.800781 12.800781 0 7.070313 5.730468 12.800781 12.800781 12.800781h8.535156c16.492187 0 29.867187 13.371094 29.867187 29.867188s-13.375 29.867187-29.867187 29.867187zm0 0" fill="#894b9d"/><path d="m59.734375 247.464844h170.664063c4.714843 0 8.535156 3.824218 8.535156 8.535156v51.199219c0 4.714843-3.820313 8.535156-8.535156 8.535156h-170.664063c-4.714844 0-8.535156-3.820313-8.535156-8.535156v-51.199219c0-4.710938 3.820312-8.535156 8.535156-8.535156zm0 0" fill="#ffb301"/><path d="m281.601562 384h179.199219c4.710938 0 8.53125 3.820312 8.53125 8.535156v51.199219c0 4.710937-3.820312 8.53125-8.53125 8.53125h-179.199219c-4.714843 0-8.535156-3.820313-8.535156-8.53125v-51.199219c0-4.714844 3.820313-8.535156 8.535156-8.535156zm0 0" fill="#ffb301"/><path d="m59.734375 247.464844h145.066406c4.710938 0 8.53125 3.824218 8.53125 8.535156v51.199219c0 4.714843-3.820312 8.535156-8.53125 8.535156h-145.066406c-4.714844 0-8.535156-3.820313-8.535156-8.535156v-51.199219c0-4.710938 3.820312-8.535156 8.535156-8.535156zm0 0" fill="#fdd834"/><path d="m281.601562 384h153.597657c4.714843 0 8.535156 3.820312 8.535156 8.535156v51.199219c0 4.710937-3.820313 8.53125-8.535156 8.53125h-153.597657c-4.714843 0-8.535156-3.820313-8.535156-8.53125v-51.199219c0-4.714844 3.820313-8.535156 8.535156-8.535156zm0 0" fill="#fdd834"/><g fill="#3d324c"><path d="m469.332031 256h-196.265625c-4.710937 0-8.53125-3.820312-8.53125-8.535156 0-4.710938 3.820313-8.53125 8.53125-8.53125h196.265625c4.714844 0 8.535157 3.820312 8.535157 8.53125 0 4.714844-3.820313 8.535156-8.535157 8.535156zm0 0"/><path d="m469.332031 290.132812h-196.265625c-4.710937 0-8.53125-3.820312-8.53125-8.53125 0-4.714843 3.820313-8.535156 8.53125-8.535156h196.265625c4.714844 0 8.535157 3.820313 8.535157 8.535156 0 4.710938-3.820313 8.53125-8.535157 8.53125zm0 0"/><path d="m469.332031 324.265625h-196.265625c-4.710937 0-8.53125-3.820313-8.53125-8.53125 0-4.714844 3.820313-8.535156 8.53125-8.535156h196.265625c4.714844 0 8.535157 3.820312 8.535157 8.535156 0 4.710937-3.820313 8.53125-8.535157 8.53125zm0 0"/><path d="m469.332031 358.398438h-196.265625c-4.710937 0-8.53125-3.820313-8.53125-8.53125 0-4.714844 3.820313-8.535157 8.53125-8.535157h196.265625c4.714844 0 8.535157 3.820313 8.535157 8.535157 0 4.710937-3.820313 8.53125-8.535157 8.53125zm0 0"/><path d="m238.933594 392.535156h-187.734375c-4.710938 0-8.53125-3.824218-8.53125-8.535156s3.820312-8.535156 8.53125-8.535156h187.734375c4.710937 0 8.53125 3.824218 8.53125 8.535156s-3.820313 8.535156-8.53125 8.535156zm0 0"/><path d="m238.933594 358.398438h-187.734375c-4.710938 0-8.53125-3.820313-8.53125-8.53125 0-4.714844 3.820312-8.535157 8.53125-8.535157h187.734375c4.710937 0 8.53125 3.820313 8.53125 8.535157 0 4.710937-3.820313 8.53125-8.53125 8.53125zm0 0"/><path d="m238.933594 426.667969h-187.734375c-4.710938 0-8.53125-3.820313-8.53125-8.535157 0-4.710937 3.820312-8.53125 8.53125-8.53125h187.734375c4.710937 0 8.53125 3.820313 8.53125 8.53125 0 4.714844-3.820313 8.535157-8.53125 8.535157zm0 0"/><path d="m238.933594 460.800781h-187.734375c-4.710938 0-8.53125-3.820312-8.53125-8.535156 0-4.710937 3.820312-8.53125 8.53125-8.53125h187.734375c4.710937 0 8.53125 3.820313 8.53125 8.53125 0 4.714844-3.820313 8.535156-8.53125 8.535156zm0 0"/></g><path d="m132.265625 204.800781c16.496094 0 29.867187-13.371093 29.867187-29.867187v-55.46875h17.066407c4.714843 0 8.535156-3.820313 8.535156-8.53125 0-4.714844-3.820313-8.535156-8.535156-8.535156h-51.199219c-4.710938 0-8.535156 3.820312-8.535156 8.535156 0 4.710937 3.824218 8.53125 8.535156 8.53125h17.066406v55.46875c0 7.070312-5.730468 12.800781-12.800781 12.800781-7.066406 0-12.800781-5.730469-12.800781-12.800781 0-4.714844-3.820313-8.535156-8.53125-8.535156-4.714844 0-8.535156 3.820312-8.535156 8.535156 0 16.496094 13.375 29.867187 29.867187 29.867187zm0 0"/><path d="m221.867188 102.398438c-18.851563 0-34.132813 15.285156-34.132813 34.136718v34.132813c0 18.851562 15.28125 34.132812 34.132813 34.132812 18.851562 0 34.132812-15.28125 34.132812-34.132812v-34.132813c0-18.851562-15.28125-34.136718-34.132812-34.136718zm17.066406 68.269531c0 9.425781-7.640625 17.066406-17.066406 17.066406-9.425782 0-17.066407-7.640625-17.066407-17.066406v-34.132813c0-9.425781 7.640625-17.070312 17.066407-17.070312 9.425781 0 17.066406 7.644531 17.066406 17.070312zm0 0"/><path d="m281.601562 204.800781h21.332032c12.144531.015625 23.085937-7.332031 27.664062-18.582031s1.878906-24.148438-6.824218-32.617188c8.703124-8.46875 11.402343-21.371093 6.824218-32.621093-4.578125-11.246094-15.519531-18.597657-27.664062-18.582031h-21.332032c-9.425781 0-17.066406 7.640624-17.066406 17.066406v68.269531c0 9.425781 7.640625 17.066406 17.066406 17.066406zm34.132813-29.867187c0 7.070312-5.730469 12.800781-12.800781 12.800781h-21.332032v-25.601563h21.332032c7.070312 0 12.800781 5.730469 12.800781 12.800782zm-34.132813-55.46875h21.332032c7.070312 0 12.800781 5.734375 12.800781 12.800781 0 7.070313-5.730469 12.800781-12.800781 12.800781h-21.332032zm0 0"/><path d="m379.734375 187.734375h-12.800781c-4.4375-.609375-7.925782-4.097656-8.535156-8.535156 0-4.710938-3.820313-8.53125-8.53125-8.53125-4.714844 0-8.535157 3.820312-8.535157 8.53125.6875 13.84375 11.757813 24.914062 25.601563 25.601562h12.800781c16.492187 0 29.867187-13.371093 29.867187-29.867187s-13.375-29.867188-29.867187-29.867188h-8.535156c-7.070313 0-12.800781-5.730468-12.800781-12.800781 0-7.066406 5.730468-12.800781 12.800781-12.800781h12.800781c4.4375.609375 7.925781 4.097656 8.535156 8.535156 0 4.710938 3.820313 8.535156 8.53125 8.535156 4.714844 0 8.535156-3.824218 8.535156-8.535156-.6875-13.84375-11.757812-24.914062-25.601562-25.601562h-12.800781c-16.492188 0-29.867188 13.375-29.867188 29.867187 0 16.496094 13.375 29.867187 29.867188 29.867187h8.535156c7.066406 0 12.800781 5.730469 12.800781 12.800782 0 7.070312-5.734375 12.800781-12.800781 12.800781zm0 0"/><path d="m230.398438 238.933594h-170.664063c-9.425781 0-17.066406 7.640625-17.066406 17.066406v51.199219c0 9.425781 7.640625 17.066406 17.066406 17.066406h170.664063c9.425781 0 17.066406-7.640625 17.066406-17.066406v-51.199219c0-9.425781-7.640625-17.066406-17.066406-17.066406zm-170.664063 68.265625v-51.199219h170.664063v51.199219zm0 0"/><path d="m460.800781 375.464844h-179.199219c-9.425781 0-17.066406 7.644531-17.066406 17.070312v51.199219c0 9.425781 7.640625 17.066406 17.066406 17.066406h179.199219c9.425781 0 17.066407-7.640625 17.066407-17.066406v-51.199219c0-9.425781-7.640626-17.070312-17.066407-17.070312zm-179.199219 68.269531v-51.199219h179.199219v51.199219zm0 0"/><path d="m469.332031 238.933594h-196.265625c-4.710937 0-8.53125 3.820312-8.53125 8.53125 0 4.714844 3.820313 8.535156 8.53125 8.535156h196.265625c4.714844 0 8.535157-3.820312 8.535157-8.535156 0-4.710938-3.820313-8.53125-8.535157-8.53125zm0 0"/><path d="m469.332031 273.066406h-196.265625c-4.710937 0-8.53125 3.820313-8.53125 8.535156 0 4.710938 3.820313 8.53125 8.53125 8.53125h196.265625c4.714844 0 8.535157-3.820312 8.535157-8.53125 0-4.714843-3.820313-8.535156-8.535157-8.535156zm0 0"/><path d="m469.332031 307.199219h-196.265625c-4.710937 0-8.53125 3.820312-8.53125 8.535156 0 4.710937 3.820313 8.53125 8.53125 8.53125h196.265625c4.714844 0 8.535157-3.820313 8.535157-8.53125 0-4.714844-3.820313-8.535156-8.535157-8.535156zm0 0"/><path d="m469.332031 341.332031h-196.265625c-4.710937 0-8.53125 3.820313-8.53125 8.535157 0 4.710937 3.820313 8.53125 8.53125 8.53125h196.265625c4.714844 0 8.535157-3.820313 8.535157-8.53125 0-4.714844-3.820313-8.535157-8.535157-8.535157zm0 0"/><path d="m238.933594 375.464844h-187.734375c-4.710938 0-8.53125 3.824218-8.53125 8.535156s3.820312 8.535156 8.53125 8.535156h187.734375c4.710937 0 8.53125-3.824218 8.53125-8.535156s-3.820313-8.535156-8.53125-8.535156zm0 0"/><path d="m238.933594 341.332031h-187.734375c-4.710938 0-8.53125 3.820313-8.53125 8.535157 0 4.710937 3.820312 8.53125 8.53125 8.53125h187.734375c4.710937 0 8.53125-3.820313 8.53125-8.53125 0-4.714844-3.820313-8.535157-8.53125-8.535157zm0 0"/><path d="m238.933594 409.601562h-187.734375c-4.710938 0-8.53125 3.820313-8.53125 8.53125 0 4.714844 3.820312 8.535157 8.53125 8.535157h187.734375c4.710937 0 8.53125-3.820313 8.53125-8.535157 0-4.710937-3.820313-8.53125-8.53125-8.53125zm0 0"/><path d="m238.933594 443.734375h-187.734375c-4.710938 0-8.53125 3.820313-8.53125 8.53125 0 4.714844 3.820312 8.535156 8.53125 8.535156h187.734375c4.710937 0 8.53125-3.820312 8.53125-8.535156 0-4.710937-3.820313-8.53125-8.53125-8.53125zm0 0"/><path d="m469.332031 0h-426.664062c-23.554688.0273438-42.6406252 19.113281-42.667969 42.667969v426.664062c.0273438 23.554688 19.113281 42.640625 42.667969 42.667969h426.664062c23.554688-.027344 42.640625-19.113281 42.667969-42.667969v-426.664062c-.027344-23.554688-19.113281-42.6406252-42.667969-42.667969zm-426.664062 17.066406h426.664062c14.140625 0 25.601563 11.460938 25.601563 25.601563v25.597656h-477.867188v-25.597656c0-14.140625 11.460938-25.601563 25.601563-25.601563zm426.664062 477.867188h-426.664062c-14.140625 0-25.601563-11.460938-25.601563-25.601563v-384h477.867188v384c0 14.140625-11.460938 25.601563-25.601563 25.601563zm0 0"/><path d="m51.199219 42.667969c0 4.710937-3.820313 8.53125-8.53125 8.53125-4.714844 0-8.535157-3.820313-8.535157-8.53125 0-4.714844 3.820313-8.535157 8.535157-8.535157 4.710937 0 8.53125 3.820313 8.53125 8.535157zm0 0"/><path d="m85.332031 42.667969c0 4.710937-3.820312 8.53125-8.53125 8.53125-4.714843 0-8.535156-3.820313-8.535156-8.53125 0-4.714844 3.820313-8.535157 8.535156-8.535157 4.710938 0 8.53125 3.820313 8.53125 8.535157zm0 0"/><path d="m119.464844 42.667969c0 4.710937-3.820313 8.53125-8.53125 8.53125-4.714844 0-8.535156-3.820313-8.535156-8.53125 0-4.714844 3.820312-8.535157 8.535156-8.535157 4.710937 0 8.53125 3.820313 8.53125 8.535157zm0 0"/></svg>